<?xml version="1.0" encoding="UTF-8"?>
<svg id="Layer_3" data-name="Layer 3" xmlns="http://www.w3.org/2000/svg" viewBox="0 0 800 500">
  <defs>
    <style>
      .cls-1, .cls-2, .cls-3, .cls-4, .cls-5 {
        stroke: #fff;
        stroke-miterlimit: 10;
      }

      .cls-1, .cls-4 {
        stroke-width: .75px;
      }

      .cls-1, .cls-6 {
        fill: #998675;
      }

      .cls-7 {
        fill: #e6e6e6;
      }

      .cls-2 {
        fill: #fbb03b;
        stroke-width: 2px;
      }

      .cls-3 {
        stroke-width: 5px;
      }

      .cls-3, .cls-8 {
        fill: #b3b3b3;
      }

      .cls-4 {
        fill: #fff;
      }

      .cls-5, .cls-9 {
        fill: #999;
      }
    </style>
  </defs>
  <rect class="cls-1" x="221.2" y="238.22" width="352.61" height="175.32"/>
  <rect class="cls-5" x="221.2" y="175.7" width="352.61" height="41.86"/>
  <rect class="cls-7" x="246.15" y="241.73" width="31.23" height="19.32"/>
  <polygon class="cls-9" points="247.41 414.9 250.45 261.05 273.78 261.05 276.13 414.9 247.41 414.9"/>
  <polygon class="cls-7" points="252.39 414.9 254.91 261.05 274.18 261.05 276.13 414.9 252.39 414.9"/>
  <rect class="cls-8" x="246.15" y="255.45" width="31.23" height="5.59"/>
  <rect class="cls-7" x="381.89" y="241.73" width="31.23" height="19.32"/>
  <polygon class="cls-9" points="383.15 414.9 386.19 261.05 409.52 261.05 411.87 414.9 383.15 414.9"/>
  <polygon class="cls-7" points="388.13 414.9 390.65 261.05 409.92 261.05 411.87 414.9 388.13 414.9"/>
  <rect class="cls-8" x="381.89" y="255.45" width="31.23" height="5.59"/>
  <rect class="cls-7" x="451.02" y="241.73" width="31.23" height="19.32"/>
  <polygon class="cls-9" points="452.28 414.9 455.32 261.05 478.64 261.05 480.99 414.9 452.28 414.9"/>
  <polygon class="cls-7" points="457.26 414.9 459.77 261.05 479.05 261.05 480.99 414.9 457.26 414.9"/>
  <rect class="cls-8" x="451.02" y="255.45" width="31.23" height="5.59"/>
  <rect class="cls-7" x="517.63" y="241.73" width="31.23" height="19.32"/>
  <polygon class="cls-9" points="518.89 414.9 521.93 261.05 545.26 261.05 547.61 414.9 518.89 414.9"/>
  <polygon class="cls-7" points="523.87 414.9 526.39 261.05 545.67 261.05 547.61 414.9 523.87 414.9"/>
  <rect class="cls-8" x="517.63" y="255.45" width="31.23" height="5.59"/>
  <rect class="cls-7" x="314.02" y="241.73" width="31.23" height="19.32"/>
  <polygon class="cls-9" points="315.28 414.9 318.32 261.05 341.65 261.05 344 414.9 315.28 414.9"/>
  <polygon class="cls-7" points="320.26 414.9 322.78 261.05 342.05 261.05 344 414.9 320.26 414.9"/>
  <rect class="cls-8" x="314.02" y="255.45" width="31.23" height="5.59"/>
  <rect class="cls-7" x="221.2" y="217.56" width="352.61" height="24.17"/>
  <rect class="cls-7" x="196.34" y="423.73" width="407.32" height="17.15"/>
  <rect class="cls-9" x="221.2" y="406.32" width="352.61" height="17.15"/>
  <rect class="cls-8" x="183.59" y="440.88" width="432.81" height="17.15"/>
  <polygon class="cls-3" points="397.96 81.55 208.95 175.7 586.97 175.7 397.96 81.55"/>
  <polygon class="cls-3" points="397.96 81.55 208.95 175.7 586.97 175.7 397.96 81.55"/>
  <polygon class="cls-6" points="397.96 113.23 305.67 159.21 490.25 159.21 397.96 113.23"/>
  <path class="cls-2" d="M421.15,67.2h-18.62v-2.77c0-2.95-.22-4.87-.65-5.78s-1.35-1.36-2.76-1.36c-1.14,0-1.99.39-2.56,1.18-.57.78-.86,1.96-.86,3.53,0,2.62.58,4.45,1.75,5.49,1.14,1.05,4.49,3.08,10.05,6.11,4.73,2.56,7.96,4.52,9.68,5.88,1.72,1.37,3.17,3.29,4.36,5.78,1.18,2.5,1.77,5.6,1.77,9.31,0,5.95-1.6,10.61-4.79,14-3.2,3.39-7.99,5.48-14.38,6.28v6.28h-8.57v-6.48c-4.98-.44-9.32-2.15-13.04-5.14s-5.58-8.2-5.58-15.63v-3.26h18.62v4.09c0,4.49.19,7.28.57,8.36s1.32,1.63,2.79,1.63c1.26,0,2.2-.38,2.81-1.13.61-.76.92-1.88.92-3.37,0-3.74-.29-6.42-.88-8.03-.58-1.61-2.58-3.37-5.99-5.27-5.68-3.19-9.55-5.54-11.59-7.04-2.05-1.5-3.81-3.62-5.3-6.34s-2.23-5.81-2.23-9.25c0-4.98,1.57-8.89,4.72-11.73s7.87-4.58,14.17-5.24v-5.33h8.57v5.33c5.74.66,10.05,2.39,12.9,5.18,2.86,2.8,4.29,6.66,4.29,11.58,0,.69-.06,1.73-.18,3.14Z"/>
  <rect class="cls-4" x="444.54" y="406.84" width="44.18" height="16.11"/>
  <rect class="cls-4" x="513.65" y="406.84" width="44.18" height="16.11"/>
  <rect class="cls-4" x="375.42" y="406.84" width="44.18" height="16.11"/>
  <rect class="cls-4" x="307.55" y="406.84" width="44.18" height="16.11"/>
  <rect class="cls-4" x="242.17" y="406.84" width="44.18" height="16.11"/>
</svg>