<?xml version="1.0" encoding="UTF-8"?>
<svg id="Layer_3" data-name="Layer 3" xmlns="http://www.w3.org/2000/svg" viewBox="0 0 800 500">
  <defs>
    <style>
      .cls-1, .cls-2, .cls-3, .cls-4, .cls-5, .cls-6, .cls-7, .cls-8, .cls-9, .cls-10, .cls-11, .cls-12, .cls-13, .cls-14, .cls-15, .cls-16, .cls-17 {
        stroke-miterlimit: 10;
      }

      .cls-1, .cls-5, .cls-14 {
        fill: none;
      }

      .cls-1, .cls-7, .cls-8, .cls-9, .cls-10, .cls-13 {
        stroke-width: 2px;
      }

      .cls-1, .cls-16 {
        stroke: #c69c6d;
      }

      .cls-2, .cls-3, .cls-4, .cls-6, .cls-7, .cls-8, .cls-9, .cls-10, .cls-11, .cls-13, .cls-17 {
        stroke: #f2f0e9;
      }

      .cls-2, .cls-3, .cls-4, .cls-6, .cls-11, .cls-17 {
        stroke-width: 4px;
      }

      .cls-2, .cls-7 {
        fill: #0071bc;
      }

      .cls-3 {
        fill: #998675;
      }

      .cls-4, .cls-18 {
        fill: #fff;
      }

      .cls-5, .cls-12, .cls-15 {
        stroke: #fff;
      }

      .cls-19 {
        fill: #009245;
      }

      .cls-6, .cls-10 {
        fill: #29abe2;
      }

      .cls-8 {
        fill: #ff7bac;
      }

      .cls-9, .cls-16 {
        fill: #754c24;
      }

      .cls-20 {
        fill: #39b54a;
      }

      .cls-11 {
        fill: #736357;
      }

      .cls-12 {
        fill: #2e3192;
      }

      .cls-13 {
        fill: #9ac7d6;
      }

      .cls-21 {
        fill: #f2f2f2;
      }

      .cls-14 {
        stroke: red;
        stroke-width: 10px;
      }

      .cls-15 {
        fill: #bdccd4;
      }

      .cls-22 {
        fill: #006837;
      }

      .cls-16 {
        stroke-width: 3px;
      }

      .cls-17 {
        fill: #c7b299;
      }
    </style>
  </defs>
  <g>
    <rect class="cls-13" x="107.77" y="142.44" width="273.51" height="313.28"/>
    <rect class="cls-8" x="409.89" y="95.55" width="273.51" height="360.17"/>
    <rect class="cls-21" x="98.89" y="196.72" width="8.87" height="8.87"/>
    <circle class="cls-4" cx="63.7" cy="202.27" r="35.64"/>
    <line class="cls-14" x1="63.7" y1="166.63" x2="63.7" y2="237.91"/>
    <line class="cls-14" x1="28.06" y1="202.27" x2="99.33" y2="202.27"/>
    <circle class="cls-17" cx="732.25" cy="220.42" r="35.64"/>
    <rect class="cls-11" x="292.94" y="261.96" width="79.22" height="189.91"/>
    <rect class="cls-7" x="302.71" y="274.84" width="59.7" height="117.77"/>
    <rect class="cls-3" x="438.87" y="238.77" width="79.22" height="189.91"/>
    <rect class="cls-10" x="448.63" y="251.65" width="59.7" height="117.77"/>
    <rect class="cls-2" x="130.51" y="261.96" width="138.81" height="130.65"/>
    <line class="cls-2" x1="199.91" y1="392.61" x2="199.91" y2="261.96"/>
    <rect class="cls-6" x="539.24" y="176.11" width="124.55" height="216.5"/>
    <line class="cls-2" x1="601.51" y1="392.61" x2="601.51" y2="176.11"/>
    <g>
      <path class="cls-12" d="M124.84,144.76v102.96c0,5.42,4.4,9.82,9.82,9.82s9.82-4.4,9.82-9.82c0,5.42,4.4,9.82,9.82,9.82s9.82-4.4,9.82-9.82c0,5.42,4.4,9.82,9.82,9.82s9.82-4.4,9.82-9.82c0,5.42,4.4,9.82,9.82,9.82s9.82-4.4,9.82-9.82c0,5.42,4.4,9.82,9.82,9.82s9.82-4.4,9.82-9.82c0,5.42,4.4,9.82,9.82,9.82s9.82-4.4,9.82-9.82c0,5.42,4.4,9.82,9.82,9.82s9.82-4.4,9.82-9.82c0,5.42,4.4,9.82,9.82,9.82s9.82-4.4,9.82-9.82h1.09c0,5.42,4.4,9.82,9.82,9.82s9.82-4.4,9.82-9.82c0,5.42,4.4,9.82,9.82,9.82s9.82-4.4,9.82-9.82c0,5.42,4.4,9.82,9.82,9.82s9.82-4.4,9.82-9.82c0,5.42,4.4,9.82,9.82,9.82s9.82-4.4,9.82-9.82c0,5.42,4.4,9.82,9.82,9.82s9.82-4.4,9.82-9.82v-102.96H124.84Z"/>
      <line class="cls-5" x1="183.76" y1="247.84" x2="183.76" y2="144.88"/>
      <line class="cls-5" x1="203.39" y1="247.82" x2="203.39" y2="144.85"/>
      <line class="cls-5" x1="223.04" y1="247.78" x2="223.04" y2="144.81"/>
      <line class="cls-5" x1="242.79" y1="247.84" x2="242.79" y2="144.88"/>
      <line class="cls-5" x1="262.29" y1="248.04" x2="262.29" y2="145.07"/>
      <line class="cls-5" x1="282.46" y1="247.46" x2="282.46" y2="144.49"/>
      <line class="cls-5" x1="302.71" y1="247.73" x2="302.71" y2="144.49"/>
      <line class="cls-5" x1="322.36" y1="247.73" x2="322.36" y2="144.49"/>
      <line class="cls-5" x1="342" y1="247.73" x2="342" y2="144.49"/>
      <line class="cls-5" x1="361.64" y1="247.73" x2="361.64" y2="144.49"/>
      <line class="cls-5" x1="164.12" y1="247.82" x2="164.12" y2="144.86"/>
      <line class="cls-5" x1="144.49" y1="247.82" x2="144.49" y2="144.86"/>
    </g>
    <g>
      <path class="cls-15" d="M403.92,66.72v132.02c0,6.96,4.9,12.59,10.93,12.59s10.93-5.64,10.93-12.59c0,6.96,4.89,12.59,10.93,12.59s10.93-5.64,10.93-12.59c0,6.96,4.9,12.59,10.93,12.59s10.93-5.64,10.93-12.59c0,6.96,4.89,12.59,10.93,12.59s10.93-5.64,10.93-12.59c0,6.96,4.89,12.59,10.93,12.59s10.93-5.64,10.93-12.59c0,6.96,4.89,12.59,10.93,12.59s10.93-5.64,10.93-12.59c0,6.96,4.89,12.59,10.93,12.59s10.93-5.64,10.93-12.59c0,6.96,4.89,12.59,10.93,12.59s10.93-5.64,10.93-12.59h1.21c0,6.96,4.9,12.59,10.93,12.59s10.93-5.64,10.93-12.59c0,6.96,4.89,12.59,10.93,12.59s10.93-5.64,10.93-12.59c0,6.96,4.89,12.59,10.93,12.59s10.93-5.64,10.93-12.59c0,6.96,4.89,12.59,10.93,12.59s10.93-5.64,10.93-12.59c0,6.96,4.89,12.59,10.93,12.59s10.93-5.64,10.93-12.59V66.72h-285.45Z"/>
      <line class="cls-5" x1="469.5" y1="198.88" x2="469.5" y2="66.86"/>
      <line class="cls-5" x1="491.36" y1="198.86" x2="491.36" y2="66.83"/>
      <line class="cls-5" x1="513.23" y1="198.8" x2="513.23" y2="66.78"/>
      <line class="cls-5" x1="535.22" y1="198.88" x2="535.22" y2="66.86"/>
      <line class="cls-5" x1="556.93" y1="199.13" x2="556.93" y2="67.11"/>
      <line class="cls-5" x1="579.37" y1="198.39" x2="579.37" y2="66.37"/>
      <line class="cls-5" x1="601.92" y1="198.74" x2="601.92" y2="66.37"/>
      <line class="cls-5" x1="623.78" y1="198.74" x2="623.78" y2="66.37"/>
      <line class="cls-5" x1="645.65" y1="198.74" x2="645.65" y2="66.37"/>
      <line class="cls-5" x1="667.51" y1="198.74" x2="667.51" y2="66.37"/>
      <line class="cls-5" x1="447.65" y1="198.86" x2="447.65" y2="66.84"/>
      <line class="cls-5" x1="425.79" y1="198.86" x2="425.79" y2="66.84"/>
    </g>
    <rect class="cls-18" x="124.84" y="188.78" width="168.11" height="29.21"/>
    <rect class="cls-18" x="538.43" y="287.07" width="126.16" height="18.89"/>
    <rect class="cls-9" x="419.61" y="415.72" width="117.74" height="37.46"/>
    <ellipse class="cls-16" cx="732.25" cy="220.42" rx="20.56" ry="14.54" transform="translate(344.68 879.63) rotate(-76.3)"/>
    <path class="cls-1" d="M737.11,200.45c-2.42,5.08-2.39,13.93-4.29,21.78-1.85,7.68-5.16,12.23-5.35,17.76"/>
  </g>
  <rect class="cls-21" x="683.4" y="217.55" width="13.21" height="8.46"/>
  <path class="cls-22" d="M565.74,455.72c0-29.86,24.1-54.06,53.82-54.06s53.82,24.2,53.82,54.06"/>
  <path class="cls-19" d="M613.12,455.72c0-37.49,21.82-67.89,48.73-67.89s48.73,30.4,48.73,67.89"/>
  <path class="cls-20" d="M673.38,455.72c0-23.74,16.52-42.98,36.91-42.98s36.91,19.24,36.91,42.98"/>
</svg>