<?xml version="1.0" encoding="UTF-8"?>
<svg id="Layer_3" data-name="Layer 3" xmlns="http://www.w3.org/2000/svg" viewBox="0 0 800 500">
  <defs>
    <style>
      .cls-1 {
        fill: #ffd800;
      }

      .cls-2 {
        stroke: #4d4d4d;
      }

      .cls-2, .cls-3 {
        fill: none;
      }

      .cls-2, .cls-3, .cls-4, .cls-5, .cls-6, .cls-7, .cls-8, .cls-9, .cls-10, .cls-11 {
        stroke-miterlimit: 10;
      }

      .cls-2, .cls-4, .cls-6, .cls-9 {
        stroke-width: 2px;
      }

      .cls-3, .cls-4, .cls-5, .cls-6, .cls-7, .cls-8, .cls-9, .cls-10, .cls-11 {
        stroke: #fff;
      }

      .cls-4 {
        fill: #9ac7d6;
      }

      .cls-12 {
        fill: #009245;
      }

      .cls-5 {
        fill: #f7931e;
      }

      .cls-5, .cls-10, .cls-11 {
        stroke-width: 3px;
      }

      .cls-6, .cls-8 {
        fill: #fbb03b;
      }

      .cls-7, .cls-9 {
        fill: #d4145a;
      }

      .cls-13 {
        fill: #fff;
      }

      .cls-14 {
        fill: #39b54a;
      }

      .cls-8 {
        stroke-width: 4px;
      }

      .cls-15 {
        fill: #8c6239;
      }

      .cls-10 {
        fill: #754c24;
      }

      .cls-16 {
        fill: #006837;
      }

      .cls-11 {
        fill: #ff7bac;
      }
    </style>
  </defs>
  <rect class="cls-10" x="108.83" y="118.28" width="560.05" height="66.51"/>
  <rect class="cls-5" x="115.25" y="189.12" width="547.22" height="245.81"/>
  <polygon class="cls-8" points="388.86 90.33 263.55 185 514.16 185 388.86 90.33"/>
  <rect class="cls-6" x="303.59" y="189.12" width="170.54" height="256.18"/>
  <circle class="cls-9" cx="390.01" cy="146.58" r="23.97"/>
  <circle class="cls-9" cx="390.01" cy="146.58" r=".87"/>
  <polyline class="cls-7" points="390.01 130.51 390.01 146.58 396.87 153.44"/>
  <path class="cls-4" d="M357.81,292.18h62.44c17.21,0,31.19,13.98,31.19,31.19v106.43h-124.82v-106.43c0-17.21,13.98-31.19,31.19-31.19Z"/>
  <line class="cls-4" x1="389.03" y1="292.18" x2="389.03" y2="429.8"/>
  <path class="cls-4" d="M161.48,202.12h23.17c6.39,0,11.57,5.19,11.57,11.57v53.58h-46.32v-53.58c0-6.39,5.19-11.57,11.57-11.57Z"/>
  <rect class="cls-15" x="141.47" y="262.3" width="63.19" height="15.9"/>
  <path class="cls-4" d="M250.45,202.12h23.17c6.39,0,11.57,5.19,11.57,11.57v53.58h-46.32v-53.58c0-6.39,5.19-11.57,11.57-11.57Z"/>
  <rect class="cls-15" x="230.44" y="262.3" width="63.19" height="15.9"/>
  <path class="cls-4" d="M161.48,303.65h23.17c6.39,0,11.57,5.19,11.57,11.57v53.58h-46.32v-53.58c0-6.39,5.19-11.57,11.57-11.57Z"/>
  <rect class="cls-15" x="141.47" y="363.83" width="63.19" height="15.9"/>
  <path class="cls-4" d="M250.45,303.65h23.17c6.39,0,11.57,5.19,11.57,11.57v53.58h-46.32v-53.58c0-6.39,5.19-11.57,11.57-11.57Z"/>
  <rect class="cls-15" x="230.44" y="363.83" width="63.19" height="15.9"/>
  <path class="cls-4" d="M504.44,202.12h23.17c6.39,0,11.57,5.19,11.57,11.57v53.58h-46.32v-53.58c0-6.39,5.19-11.57,11.57-11.57Z"/>
  <rect class="cls-15" x="484.42" y="262.3" width="63.19" height="15.9"/>
  <path class="cls-4" d="M593.41,202.12h23.17c6.39,0,11.57,5.19,11.57,11.57v53.58h-46.32v-53.58c0-6.39,5.19-11.57,11.57-11.57Z"/>
  <rect class="cls-15" x="573.39" y="262.3" width="63.19" height="15.9"/>
  <path class="cls-4" d="M504.44,303.65h23.17c6.39,0,11.57,5.19,11.57,11.57v53.58h-46.32v-53.58c0-6.39,5.19-11.57,11.57-11.57Z"/>
  <rect class="cls-15" x="484.42" y="363.83" width="63.19" height="15.9"/>
  <path class="cls-4" d="M593.41,303.65h23.17c6.39,0,11.57,5.19,11.57,11.57v53.58h-46.32v-53.58c0-6.39,5.19-11.57,11.57-11.57Z"/>
  <rect class="cls-15" x="573.39" y="363.83" width="63.19" height="15.9"/>
  <g>
    <rect class="cls-4" x="326.62" y="208.24" width="124.82" height="42.21"/>
    <rect class="cls-13" x="321.15" y="250.45" width="135.75" height="10.71"/>
    <line class="cls-3" x1="389.03" y1="208.24" x2="389.03" y2="250.45"/>
    <line class="cls-3" x1="358.2" y1="208.24" x2="358.2" y2="250.45"/>
    <line class="cls-3" x1="419.85" y1="208.24" x2="419.85" y2="250.45"/>
  </g>
  <path class="cls-16" d="M109.09,434.94c0-18.99,14.5-34.38,32.38-34.38s32.38,15.39,32.38,34.38"/>
  <path class="cls-12" d="M137.59,434.94c0-23.85,13.12-43.18,29.31-43.18s29.31,19.33,29.31,43.18"/>
  <path class="cls-14" d="M173.84,434.94c0-15.1,9.94-27.34,22.2-27.34s22.2,12.24,22.2,27.34"/>
  <path class="cls-16" d="M582.01,434.94c0-18.99,14.5-34.38,32.38-34.38s32.38,15.39,32.38,34.38"/>
  <path class="cls-12" d="M610.51,434.94c0-23.85,13.12-43.18,29.31-43.18s29.31,19.33,29.31,43.18"/>
  <path class="cls-14" d="M646.76,434.94c0-15.1,9.94-27.34,22.2-27.34s22.2,12.24,22.2,27.34"/>
  <rect class="cls-11" x="290.45" y="429.8" width="197.15" height="20.73"/>
  <polygon class="cls-1" points="445.22 77.7 388.86 77.7 388.86 49.46 445.22 49.46 428.44 63.58 445.22 77.7"/>
  <line class="cls-2" x1="388.86" y1="49.46" x2="388.86" y2="90.33"/>
</svg>