<?xml version="1.0" encoding="UTF-8"?>
<svg id="Layer_3" data-name="Layer 3" xmlns="http://www.w3.org/2000/svg" viewBox="0 0 800 500">
  <defs>
    <style>
      .cls-1 {
        fill: red;
      }

      .cls-1, .cls-2, .cls-3, .cls-4, .cls-5, .cls-6, .cls-7, .cls-8, .cls-9, .cls-10, .cls-11, .cls-12 {
        stroke-miterlimit: 10;
      }

      .cls-1, .cls-2, .cls-3, .cls-9, .cls-10, .cls-11, .cls-12 {
        stroke: #fff;
      }

      .cls-1, .cls-2, .cls-10, .cls-11, .cls-12 {
        stroke-width: 2px;
      }

      .cls-13 {
        fill: #f2f0e9;
      }

      .cls-14, .cls-4 {
        fill: #603813;
      }

      .cls-2 {
        fill: #006837;
      }

      .cls-3, .cls-5, .cls-6, .cls-12 {
        fill: none;
      }

      .cls-4 {
        stroke: #603813;
      }

      .cls-4, .cls-6, .cls-8 {
        stroke-width: 6px;
      }

      .cls-5, .cls-6, .cls-7, .cls-8 {
        stroke: #f2f0e9;
      }

      .cls-5, .cls-7, .cls-9 {
        stroke-width: 3px;
      }

      .cls-7, .cls-15 {
        fill: #c1272d;
      }

      .cls-16, .cls-9, .cls-11 {
        fill: #0071bc;
      }

      .cls-17 {
        fill: #fff;
      }

      .cls-8 {
        fill: #c97632;
      }

      .cls-10 {
        fill: #29abe2;
      }

      .cls-18 {
        fill: #736357;
      }
    </style>
  </defs>
  <g>
    <rect class="cls-7" x="416.87" y="95.45" width="186.95" height="393.52"/>
    <polygon class="cls-7" points="437.25 95.45 437.25 78.58 453.92 78.58 453.92 64.53 472.28 64.53 472.28 47.66 490.31 47.66 490.31 31.85 503.45 31.85 503.45 19.55 510.69 19.55 510.69 95.45 437.25 95.45"/>
    <polygon class="cls-7" points="584.99 95.45 584.99 78.58 568.32 78.58 568.32 64.53 549.96 64.53 549.96 47.66 531.93 47.66 531.93 31.85 518.79 31.85 518.79 19.55 511.55 19.55 511.55 95.45 584.99 95.45"/>
    <rect class="cls-15" x="508.23" y="21.64" width="5.76" height="53.09"/>
    <rect class="cls-13" x="496.75" y="10.29" width="28.73" height="11.35"/>
    <line class="cls-5" x1="420.21" y1="116.71" x2="601.18" y2="116.71"/>
    <line class="cls-5" x1="420.21" y1="212.43" x2="601.18" y2="212.43"/>
    <line class="cls-5" x1="420.21" y1="303.1" x2="601.18" y2="303.1"/>
    <line class="cls-5" x1="420.21" y1="390.54" x2="601.18" y2="390.54"/>
    <g>
      <rect class="cls-10" x="447.75" y="131.97" width="39.71" height="63.6"/>
      <rect class="cls-16" x="449.23" y="133.39" width="36.88" height="8.59"/>
      <rect class="cls-16" x="423.53" y="158.87" width="60.78" height="9.82" transform="translate(617.7 -290.14) rotate(90)"/>
      <line class="cls-12" x1="467.61" y1="195.57" x2="467.61" y2="131.97"/>
      <line class="cls-12" x1="447.75" y1="154.11" x2="487.46" y2="154.11"/>
      <line class="cls-12" x1="447.75" y1="174.84" x2="487.46" y2="174.84"/>
      <rect class="cls-17" x="443.43" y="196.04" width="48.36" height="6.19"/>
    </g>
    <g>
      <rect class="cls-10" x="535.73" y="131.97" width="39.71" height="63.6"/>
      <rect class="cls-16" x="537.2" y="133.39" width="36.88" height="8.59"/>
      <rect class="cls-16" x="511.51" y="158.87" width="60.78" height="9.82" transform="translate(705.68 -378.12) rotate(90)"/>
      <line class="cls-12" x1="555.59" y1="195.57" x2="555.59" y2="131.97"/>
      <line class="cls-12" x1="535.73" y1="154.11" x2="575.44" y2="154.11"/>
      <line class="cls-12" x1="535.73" y1="174.84" x2="575.44" y2="174.84"/>
      <rect class="cls-17" x="531.4" y="196.04" width="48.36" height="6.19"/>
    </g>
    <g>
      <rect class="cls-10" x="447.75" y="222.63" width="39.71" height="63.6"/>
      <rect class="cls-16" x="449.23" y="224.05" width="36.88" height="8.59"/>
      <rect class="cls-16" x="423.53" y="249.54" width="60.78" height="9.82" transform="translate(708.37 -199.48) rotate(90)"/>
      <line class="cls-12" x1="467.61" y1="286.24" x2="467.61" y2="222.63"/>
      <line class="cls-12" x1="447.75" y1="244.77" x2="487.46" y2="244.77"/>
      <line class="cls-12" x1="447.75" y1="265.5" x2="487.46" y2="265.5"/>
      <rect class="cls-17" x="443.43" y="286.7" width="48.36" height="6.19"/>
    </g>
    <g>
      <rect class="cls-10" x="535.73" y="222.63" width="39.71" height="63.6"/>
      <rect class="cls-16" x="537.2" y="224.05" width="36.88" height="8.59"/>
      <rect class="cls-16" x="511.51" y="249.54" width="60.78" height="9.82" transform="translate(796.34 -287.46) rotate(90)"/>
      <line class="cls-12" x1="555.59" y1="286.24" x2="555.59" y2="222.63"/>
      <line class="cls-12" x1="535.73" y1="244.77" x2="575.44" y2="244.77"/>
      <line class="cls-12" x1="535.73" y1="265.5" x2="575.44" y2="265.5"/>
      <rect class="cls-17" x="531.4" y="286.7" width="48.36" height="6.19"/>
    </g>
    <g>
      <rect class="cls-10" x="447.75" y="313.29" width="39.71" height="63.6"/>
      <rect class="cls-16" x="449.23" y="314.72" width="36.88" height="8.59"/>
      <rect class="cls-16" x="423.53" y="340.2" width="60.78" height="9.82" transform="translate(799.03 -108.82) rotate(90)"/>
      <line class="cls-12" x1="467.61" y1="376.9" x2="467.61" y2="313.29"/>
      <line class="cls-12" x1="447.75" y1="335.43" x2="487.46" y2="335.43"/>
      <line class="cls-12" x1="447.75" y1="356.17" x2="487.46" y2="356.17"/>
      <rect class="cls-17" x="443.43" y="377.37" width="48.36" height="6.19"/>
    </g>
    <g>
      <rect class="cls-10" x="535.73" y="313.29" width="39.71" height="63.6"/>
      <rect class="cls-16" x="537.2" y="314.72" width="36.88" height="8.59"/>
      <rect class="cls-16" x="511.51" y="340.2" width="60.78" height="9.82" transform="translate(887.01 -196.79) rotate(90)"/>
      <line class="cls-12" x1="555.59" y1="376.9" x2="555.59" y2="313.29"/>
      <line class="cls-12" x1="535.73" y1="335.43" x2="575.44" y2="335.43"/>
      <line class="cls-12" x1="535.73" y1="356.17" x2="575.44" y2="356.17"/>
      <rect class="cls-17" x="531.4" y="377.37" width="48.36" height="6.19"/>
    </g>
    <g>
      <rect class="cls-11" x="475.44" y="76.08" width="72.21" height="24.42"/>
      <rect class="cls-17" x="472.28" y="100.5" width="78.54" height="6.19"/>
      <line class="cls-3" x1="511.55" y1="76.08" x2="511.55" y2="100.5"/>
      <line class="cls-3" x1="493.72" y1="76.08" x2="493.72" y2="100.5"/>
      <line class="cls-3" x1="529.38" y1="76.08" x2="529.38" y2="100.5"/>
    </g>
    <g>
      <rect class="cls-10" x="432.75" y="397.53" width="101.21" height="73.53"/>
      <rect class="cls-16" x="406.71" y="426.26" width="70.48" height="15.65" transform="translate(876.04 -7.87) rotate(90)"/>
      <rect class="cls-16" x="434.13" y="398.85" width="98.44" height="7.36" transform="translate(966.7 805.06) rotate(-180)"/>
      <line class="cls-12" x1="432.75" y1="416.29" x2="533.95" y2="416.29"/>
      <line class="cls-12" x1="483.35" y1="398.85" x2="483.35" y2="469.33"/>
      <line class="cls-3" x1="449.78" y1="398.85" x2="449.78" y2="416.29"/>
      <line class="cls-3" x1="466.56" y1="398.85" x2="466.56" y2="416.29"/>
      <line class="cls-3" x1="500.14" y1="398.85" x2="500.14" y2="416.29"/>
      <line class="cls-3" x1="516.92" y1="398.85" x2="516.92" y2="416.29"/>
    </g>
    <g>
      <polygon class="cls-1" points="588.03 481.91 549.37 481.91 549.37 416.29 549.37 400.57 588.03 400.57 588.03 481.91"/>
      <rect class="cls-15" x="550.94" y="401.9" width="35.7" height="8.59"/>
      <rect class="cls-15" x="516.15" y="436.49" width="78.67" height="9.5" transform="translate(996.72 -114.25) rotate(90)"/>
      <line class="cls-12" x1="549.37" y1="416.29" x2="588.03" y2="416.29"/>
      <line class="cls-3" x1="568.7" y1="400.57" x2="568.7" y2="416.29"/>
      <rect class="cls-3" x="556.61" y="455.12" width="24.18" height="21.95"/>
      <rect class="cls-3" x="556.61" y="424.73" width="24.18" height="21.95"/>
      <rect class="cls-13" x="537.66" y="483.27" width="62.07" height="11.4"/>
    </g>
  </g>
  <g>
    <rect class="cls-9" x="187.04" y="108.78" width="43.51" height="20.97"/>
    <rect class="cls-9" x="256.54" y="108.78" width="43.51" height="20.97"/>
    <rect class="cls-9" x="325.88" y="108.78" width="43.51" height="20.97"/>
    <rect class="cls-14" x="162.33" y="64.31" width="13.7" height="24.66"/>
    <rect class="cls-14" x="376.98" y="64.31" width="13.7" height="24.66"/>
    <path class="cls-6" d="M247.12,81.18c0-14.39,13.16-26.06,29.39-26.06s29.39,11.67,29.39,26.06"/>
    <path class="cls-4" d="M390.69,73.1h-94.72c-4.8-5.83-12.08-9.55-20.23-9.55s-15.42,3.72-20.23,9.55h-93.17v15.88h87.25c0,.26-.04.51-.04.77h52.39c0-.26-.03-.51-.04-.77h88.79v-15.88Z"/>
    <rect class="cls-13" x="157.5" y="88.98" width="240.89" height="8.26"/>
    <rect class="cls-6" x="160.88" y="59.13" width="16.6" height="3.56"/>
    <rect class="cls-6" x="375.15" y="59.13" width="16.6" height="3.56"/>
    <rect class="cls-8" x="165.78" y="98.77" width="221.57" height="47.41"/>
    <rect class="cls-8" x="165.78" y="154.12" width="221.57" height="100.37"/>
    <rect class="cls-8" x="165.78" y="260.9" width="221.57" height="106.67"/>
    <rect class="cls-18" x="169.65" y="375.63" width="215.41" height="108.79"/>
    <g>
      <rect class="cls-10" x="187.04" y="273.76" width="43.51" height="63.6"/>
      <rect class="cls-16" x="188.66" y="275.19" width="40.42" height="8.59"/>
      <rect class="cls-16" x="163.41" y="300.2" width="60.78" height="10.76" transform="translate(499.38 111.77) rotate(90)"/>
      <line class="cls-12" x1="208.8" y1="337.37" x2="208.8" y2="273.76"/>
      <line class="cls-12" x1="187.04" y1="295.9" x2="230.56" y2="295.9"/>
      <line class="cls-12" x1="187.04" y1="316.64" x2="230.56" y2="316.64"/>
      <rect class="cls-17" x="182.3" y="337.84" width="53" height="6.19"/>
    </g>
    <g>
      <rect class="cls-10" x="256.54" y="274.2" width="43.51" height="63.6"/>
      <rect class="cls-16" x="258.16" y="275.62" width="40.42" height="8.59"/>
      <rect class="cls-16" x="232.91" y="300.63" width="60.78" height="10.76" transform="translate(569.31 42.71) rotate(90)"/>
      <line class="cls-12" x1="278.3" y1="337.8" x2="278.3" y2="274.2"/>
      <line class="cls-12" x1="256.54" y1="296.34" x2="300.06" y2="296.34"/>
      <line class="cls-12" x1="256.54" y1="317.07" x2="300.06" y2="317.07"/>
      <rect class="cls-17" x="251.8" y="338.27" width="53" height="6.19"/>
    </g>
    <g>
      <rect class="cls-10" x="325.88" y="273.76" width="43.51" height="63.6"/>
      <rect class="cls-16" x="327.49" y="275.19" width="40.42" height="8.59"/>
      <rect class="cls-16" x="302.24" y="300.2" width="60.78" height="10.76" transform="translate(638.21 -27.06) rotate(90)"/>
      <line class="cls-12" x1="347.63" y1="337.37" x2="347.63" y2="273.76"/>
      <line class="cls-12" x1="325.88" y1="295.9" x2="369.39" y2="295.9"/>
      <line class="cls-12" x1="325.88" y1="316.64" x2="369.39" y2="316.64"/>
      <rect class="cls-17" x="321.13" y="337.84" width="53" height="6.19"/>
    </g>
    <g>
      <rect class="cls-10" x="187.04" y="167.38" width="43.51" height="63.6"/>
      <rect class="cls-16" x="188.66" y="168.81" width="40.42" height="8.59"/>
      <rect class="cls-16" x="163.41" y="193.82" width="60.78" height="10.76" transform="translate(393 5.39) rotate(90)"/>
      <line class="cls-12" x1="208.8" y1="230.99" x2="208.8" y2="167.38"/>
      <line class="cls-12" x1="187.04" y1="189.52" x2="230.56" y2="189.52"/>
      <line class="cls-12" x1="187.04" y1="210.26" x2="230.56" y2="210.26"/>
      <rect class="cls-17" x="182.3" y="231.46" width="53" height="6.19"/>
    </g>
    <g>
      <rect class="cls-10" x="256.54" y="167.82" width="43.51" height="63.6"/>
      <rect class="cls-16" x="258.16" y="169.24" width="40.42" height="8.59"/>
      <rect class="cls-16" x="232.91" y="194.25" width="60.78" height="10.76" transform="translate(462.93 -63.67) rotate(90)"/>
      <line class="cls-12" x1="278.3" y1="231.42" x2="278.3" y2="167.82"/>
      <line class="cls-12" x1="256.54" y1="189.96" x2="300.06" y2="189.96"/>
      <line class="cls-12" x1="256.54" y1="210.69" x2="300.06" y2="210.69"/>
      <rect class="cls-17" x="251.8" y="231.89" width="53" height="6.19"/>
    </g>
    <g>
      <rect class="cls-10" x="325.88" y="167.38" width="43.51" height="63.6"/>
      <rect class="cls-16" x="327.49" y="168.81" width="40.42" height="8.59"/>
      <rect class="cls-16" x="302.24" y="193.82" width="60.78" height="10.76" transform="translate(531.83 -133.44) rotate(90)"/>
      <line class="cls-12" x1="347.63" y1="230.99" x2="347.63" y2="167.38"/>
      <line class="cls-12" x1="325.88" y1="189.52" x2="369.39" y2="189.52"/>
      <line class="cls-12" x1="325.88" y1="210.26" x2="369.39" y2="210.26"/>
      <rect class="cls-17" x="321.13" y="231.46" width="53" height="6.19"/>
    </g>
    <g>
      <rect class="cls-10" x="191.33" y="389.6" width="108.73" height="73.53"/>
      <rect class="cls-16" x="165.98" y="417.75" width="70.48" height="16.81" transform="translate(627.38 224.94) rotate(90)"/>
      <rect class="cls-16" x="192.82" y="390.92" width="105.75" height="7.36" transform="translate(491.39 789.2) rotate(-180)"/>
      <line class="cls-12" x1="191.33" y1="408.36" x2="300.06" y2="408.36"/>
      <line class="cls-12" x1="245.69" y1="390.92" x2="245.69" y2="461.4"/>
      <line class="cls-3" x1="209.63" y1="390.92" x2="209.63" y2="408.36"/>
      <line class="cls-3" x1="227.66" y1="390.92" x2="227.66" y2="408.36"/>
      <line class="cls-3" x1="263.73" y1="390.92" x2="263.73" y2="408.36"/>
      <line class="cls-3" x1="281.76" y1="390.92" x2="281.76" y2="408.36"/>
    </g>
    <g>
      <polygon class="cls-2" points="357.34 480.98 318.69 480.98 318.69 415.35 318.69 399.64 357.34 399.64 357.34 480.98"/>
      <rect class="cls-18" x="320.25" y="400.97" width="35.7" height="8.59"/>
      <rect class="cls-18" x="285.46" y="435.55" width="78.67" height="9.5" transform="translate(765.1 115.51) rotate(90)"/>
      <line class="cls-12" x1="318.69" y1="415.35" x2="357.34" y2="415.35"/>
      <line class="cls-3" x1="338.01" y1="399.64" x2="338.01" y2="415.35"/>
      <rect class="cls-3" x="325.92" y="454.19" width="24.18" height="21.95"/>
      <rect class="cls-3" x="325.92" y="423.8" width="24.18" height="21.95"/>
      <rect class="cls-13" x="306.98" y="482.34" width="62.07" height="11.4"/>
    </g>
    <path class="cls-8" d="M165.78,372.82v113.92h221.57v-113.92h-221.57ZM270.88,480.48h-94.38v-53.58c0-26.06,21.13-47.19,47.19-47.19h0c26.06,0,47.19,21.13,47.19,47.19v53.58ZM376.31,480.48h-94.38v-53.58c0-26.06,21.13-47.19,47.19-47.19h0c26.06,0,47.19,21.13,47.19,47.19v53.58Z"/>
  </g>
</svg>