<?xml version="1.0" encoding="UTF-8"?>
<svg id="Layer_3" data-name="Layer 3" xmlns="http://www.w3.org/2000/svg" viewBox="0 0 500 500">
  <defs>
    <style>
      .cls-1 {
        fill: #f2f0e9;
      }

      .cls-2 {
        fill: #4d4d4d;
      }

      .cls-3 {
        fill: #0071bc;
      }

      .cls-4 {
        fill: #fff;
      }

      .cls-5 {
        fill: #29abe2;
      }

      .cls-6 {
        fill: #c1272d;
      }

      .cls-7 {
        fill: #333;
      }
    </style>
  </defs>
  <path d="M111.6,349.69c-1.13.09-2.26.17-3.41.17,1.15,0,2.29-.06,3.41-.17Z"/>
  <path d="M108.19,349.86c-1.15,0-2.28-.08-3.41-.17,1.12.11,2.26.17,3.41.17Z"/>
  <path class="cls-5" d="M430.06,316.79H65.68c-.45,0-.67-.54-.36-.86l90.58-90.97,38.97-39.14c6.05-6.07,14.26-9.49,22.83-9.49l173.39,9.36c2.28,0,4.26,1.55,4.81,3.76l34.38,127.03c.04.15-.08.29-.23.29Z"/>
  <path class="cls-5" d="M155.9,235.46l-43.62,4.31c-2.73.27-5.4.91-7.96,1.89l-32.08,12.39c-5,1.93-9.08,5.69-11.41,10.51l-10.23,21.13v30.74l13.86,10.85"/>
  <rect class="cls-7" x="141.53" y="316.52" width="225.51" height="12.2"/>
  <path class="cls-5" d="M395.9,189.47l26.97,41.32,1.27,4.59c3.79,0,7.31,1.95,9.33,5.16l3.48,5.55c2.11,3.37,3.23,7.27,3.23,11.25v13.8l.95.83c5.53,4.84,8.7,11.83,8.7,19.17v9.74c0,6.18-2.72,12.04-7.44,16.03l-12.09,8.4"/>
  <path class="cls-7" d="M108.89,286.04c17.9,0,30.27,16.01,33.83,33.78l16.69-.44c0-.84-3.47-4.34-3.51-5.17-1.23-25.04-22.97-44.49-47.01-44.49s-48.04,23.91-48.04,50.11h12.64c3.56-17.77,17.49-33.78,35.4-33.78Z"/>
  <path class="cls-7" d="M48.49,314.11h26.46v14.61h-23.02c-1.9,0-3.44-1.54-3.44-3.44v-11.17h0Z"/>
  <path d="M144.76,319.75c0-20.2-16.37-36.57-36.57-36.57s-36.57,16.38-36.57,36.57c0,18.94,14.39,34.51,32.84,36.39,1.24.1,2.48.19,3.74.19s2.5-.08,3.74-.19c18.44-1.87,32.83-17.45,32.83-36.39Z"/>
  <path class="cls-7" d="M396.09,286.04c-17.64,0-29.83,16.01-33.34,33.78l-18.7-.44c0-.84,3.42-4.34,3.46-5.17,1.21-25.04,24.71-43.67,48.39-43.67,24.47,0,46.08,21.08,46.08,47.28l-12.74,2.01c0-17.95-15.52-33.78-33.16-33.78Z"/>
  <path class="cls-7" d="M428.32,325.32l6.2-1.44c.92-.21,1.77-.63,2.48-1.21l9.77-7.95,3-6.05c.85-1.71,1.33-3.56,1.41-5.44l.33-7.5h-23.19v29.58Z"/>
  <path d="M432.48,319.75c0-20.2-16.37-36.57-36.57-36.57s-36.57,16.38-36.57,36.57c0,18.94,14.39,34.51,32.84,36.39,1.24.1,2.48.19,3.74.19s2.5-.08,3.74-.19c18.44-1.87,32.83-17.45,32.83-36.39Z"/>
  <ellipse class="cls-1" cx="70.26" cy="265.91" rx="14.62" ry="8.68" transform="translate(-175.38 142.19) rotate(-48.47)"/>
  <circle class="cls-3" cx="289.87" cy="253.66" r="7.09"/>
  <rect class="cls-4" x="276.91" y="251.25" width="25.92" height="4.82"/>
  <path class="cls-6" d="M422.87,235.88h14.99c1.57,0,2.84,1.27,2.84,2.84v22.04h-17.83v-24.88h0Z"/>
  <polygon class="cls-2" points="302.83 191.03 194.87 185.83 144.31 236.6 302.83 240.32 302.83 191.03"/>
  <polygon class="cls-2" points="422.87 240.32 302.83 240.32 306.23 191.12 392.44 192.32 422.87 240.32"/>
  <rect class="cls-5" x="299.43" y="187.21" width="6.81" height="53.22"/>
  <path class="cls-1" d="M385.88,181.46l-172.02-7.69c-4.97-.66-9.49,4.82-12.91,7.59l194.47,6.89c-1.57-3.94-5.3-6.6-9.54-6.79Z"/>
  <rect class="cls-3" x="301.19" y="265.91" width="5.05" height="44.61"/>
  <rect class="cls-3" x="140.64" y="240.4" width="4.04" height="35.71" transform="translate(46.06 -20.52) rotate(9.81)"/>
  <circle class="cls-4" cx="108.19" cy="319.82" r="19.12"/>
  <circle class="cls-4" cx="395.9" cy="319.75" r="19.12"/>
  <polygon class="cls-7" points="432.19 235.88 422.87 240.32 384.97 188.25 395.42 188.25 432.19 235.88"/>
</svg>