<?xml version="1.0" encoding="UTF-8"?>
<svg id="Layer_3" data-name="Layer 3" xmlns="http://www.w3.org/2000/svg" viewBox="0 0 500 500">
  <defs>
    <style>
      .cls-1 {
        fill: #f15a24;
      }

      .cls-2 {
        fill: #f2f0e9;
      }

      .cls-3 {
        fill: #4d4d4d;
      }

      .cls-4 {
        fill: #fff;
      }

      .cls-5 {
        fill: #f7931e;
      }

      .cls-6 {
        fill: #c1272d;
      }

      .cls-7 {
        fill: #333;
      }
    </style>
  </defs>
  <path d="M111.6,380.13c-1.13.09-2.26.17-3.41.17,1.15,0,2.29-.06,3.41-.17Z"/>
  <path d="M108.19,380.3c-1.15,0-2.28-.08-3.41-.17,1.12.11,2.26.17,3.41.17Z"/>
  <path class="cls-5" d="M430.06,347.23H65.68c-.45,0-.67-.54-.36-.86l90.58-90.97,38.97-39.14c6.05-6.07,14.26-9.49,22.83-9.49l173.39,9.36c2.28,0,4.26,1.55,4.81,3.76l34.38,127.03c.04.15-.08.29-.23.29Z"/>
  <path class="cls-5" d="M155.9,265.9l-43.62,4.31c-2.73.27-5.4.91-7.96,1.89l-32.08,12.39c-5,1.93-9.08,5.69-11.41,10.51l-10.23,21.13v30.74l13.86,10.85"/>
  <rect class="cls-7" x="141.53" y="346.96" width="225.51" height="12.2"/>
  <path class="cls-5" d="M395.9,219.91l26.97,41.32,1.27,4.59c3.79,0,7.31,1.95,9.33,5.16l3.48,5.55c2.11,3.37,3.23,7.27,3.23,11.25v13.8l.95.83c5.53,4.84,8.7,11.83,8.7,19.17v9.74c0,6.18-2.72,12.04-7.44,16.03l-12.09,8.4"/>
  <path class="cls-7" d="M109.73,317.32c18.22,0,30.8,15.62,34.43,32.94h14.83c0-.82-3.53-4.24-3.58-5.04-1.25-24.42-21.23-43.82-45.69-43.82s-48.88,23.32-48.88,48.87h12.86c3.63-17.33,17.8-32.94,36.02-32.94Z"/>
  <path class="cls-7" d="M48.49,344.56h26.46v14.61h-23.02c-1.9,0-3.44-1.54-3.44-3.44v-11.17h0Z"/>
  <path d="M144.76,350.19c0-20.2-16.37-36.57-36.57-36.57s-36.57,16.38-36.57,36.57c0,18.94,14.39,34.51,32.84,36.39,1.24.1,2.48.19,3.74.19s2.5-.08,3.74-.19c18.44-1.87,32.83-17.45,32.83-36.39Z"/>
  <path class="cls-7" d="M393.64,318.5c-18.58,0-31.42,15.06-35.12,31.76h-15.13c0-.79,3.6-4.08,3.65-4.86,1.28-23.54,21.65-42.25,46.6-42.25s48.34,20.59,48.34,45.22l-13.42,1.89c0-16.88-16.34-31.76-34.93-31.76Z"/>
  <path class="cls-7" d="M428.32,355.76l6.2-1.44c.92-.21,1.77-.63,2.48-1.21l9.77-7.95,3-6.05c.85-1.71,1.33-3.56,1.41-5.44l.33-7.5h-23.19v29.58Z"/>
  <path d="M432.48,350.19c0-20.2-16.37-36.57-36.57-36.57s-36.57,16.38-36.57,36.57c0,18.94,14.39,34.51,32.84,36.39,1.24.1,2.48.19,3.74.19s2.5-.08,3.74-.19c18.44-1.87,32.83-17.45,32.83-36.39Z"/>
  <ellipse class="cls-2" cx="70.26" cy="296.35" rx="14.62" ry="8.68" transform="translate(-198.16 152.45) rotate(-48.47)"/>
  <circle class="cls-1" cx="289.87" cy="284.1" r="7.09"/>
  <rect class="cls-4" x="276.91" y="281.69" width="25.92" height="4.82"/>
  <path class="cls-6" d="M422.87,266.32h14.99c1.57,0,2.84,1.27,2.84,2.84v22.04h-17.83v-24.88h0Z"/>
  <polygon class="cls-3" points="302.83 221.48 194.87 216.27 144.31 267.04 302.83 270.76 302.83 221.48"/>
  <polygon class="cls-3" points="422.87 270.76 302.83 270.76 306.23 221.56 392.44 222.76 422.87 270.76"/>
  <rect class="cls-5" x="299.43" y="217.66" width="6.81" height="53.22"/>
  <path class="cls-2" d="M385.88,211.9l-172.02-7.69c-4.97-.66-9.49,4.82-12.91,7.59l194.47,6.89c-1.57-3.94-5.3-6.6-9.54-6.79Z"/>
  <rect class="cls-1" x="301.19" y="296.35" width="5.05" height="44.61"/>
  <rect class="cls-1" x="140.64" y="270.84" width="4.04" height="35.71" transform="translate(51.25 -20.08) rotate(9.81)"/>
  <circle class="cls-4" cx="108.19" cy="350.26" r="19.12"/>
  <circle class="cls-4" cx="395.9" cy="350.19" r="19.12"/>
  <polygon class="cls-7" points="432.19 266.32 422.87 270.76 384.97 218.7 395.42 218.7 432.19 266.32"/>
</svg>