<?xml version="1.0" encoding="UTF-8"?>
<svg xmlns="http://www.w3.org/2000/svg" viewBox="0 0 500 500">
  <defs>
    <style>
      .cls-1 {
        fill: #f2f0e9;
      }

      .cls-2 {
        fill: #4d4d4d;
      }

      .cls-3 {
        fill: #0071bc;
      }

      .cls-4 {
        fill: #fff;
      }

      .cls-5 {
        fill: #f7931e;
      }

      .cls-6 {
        fill: #11bcce;
      }
    </style>
  </defs>
  <g id="Layer_2" data-name="Layer 2">
    <path class="cls-6" d="M144.17,257.77h323.42c5.93,0,10.74,4.81,10.74,10.74v58.5c0,11.88-9.65,21.53-21.53,21.53H144.17v-90.78h0Z"/>
    <path class="cls-6" d="M265.68,303.16l-121.51-52.45,22.41-42.5c3.52-6.68,10.45-10.86,18-10.86h62.41c10.32,0,18.69,8.37,18.69,18.69v87.12Z"/>
    <path class="cls-6" d="M47.01,348.55h128.16v-101.11l-122.23,10.23c-1,.06-1.78.86-1.83,1.86l-4.1,89.03Z"/>
    <path class="cls-6" d="M52.48,257.76l-14.1,7.91c-6.73,5.24-9.76,14.58-9.76,22.96v59.92h18.28"/>
  </g>
  <g id="Layer_3" data-name="Layer 3">
    <path class="cls-2" d="M62.61,348.55h-29.82c-4.63,0-8.5-2.2-8.88-5.06l-2.21-16.32c-.26-1.94,2.21-3.6,5.35-3.6h35.56v24.98Z"/>
    <rect class="cls-5" x="25.57" y="275.37" width="25.63" height="27.8" rx="5.41" ry="5.41"/>
    <path class="cls-1" d="M251.42,253.38h-68.22c-4.11,0-7.04-3.78-5.81-7.5l13.5-40.73h60.53v48.23Z"/>
    <polygon class="cls-1" points="166.29 250.26 181.85 205.15 164.99 211.22 144.41 250.26 166.29 250.26"/>
    <rect class="cls-3" x="217.88" y="268.06" width="20.4" height="8.24"/>
    <rect class="cls-3" x="250.04" y="272.18" width="4.72" height="66.5"/>
    <rect class="cls-3" x="276.73" y="272.18" width="201.6" height="7.65"/>
    <rect class="cls-3" x="161.26" y="261.78" width="7.19" height="76.9"/>
    <path class="cls-2" d="M325.93,341.32c0-22.7,21.17-41.09,47.29-41.09s47.29,18.4,47.29,41.09"/>
    <path class="cls-2" d="M56.85,341.32c0-22.7,21.17-41.09,47.29-41.09s47.29,18.4,47.29,41.09"/>
    <path class="cls-1" d="M164.99,211.22l16.86-6.06h-13.29c-.56.76-1.14,1.61-1.7,2.55-.75,1.24-1.36,2.43-1.87,3.52Z"/>
    <path class="cls-2" d="M458.91,348.55H47.01v-16.44l431.16-2.52c-.15.2-3.25,13.11-3.41,13.31-.11.14-4.51,2.23-7.83,3.82-2.5,1.2-5.25,1.83-8.02,1.83Z"/>
    <path d="M414.75,353.82c0-22.94-18.59-41.53-41.53-41.53s-41.53,18.59-41.53,41.53c0,21.5,16.34,39.19,37.29,41.32,1.4.12,2.81.21,4.25.21s2.84-.1,4.25-.21c20.94-2.13,37.28-19.81,37.28-41.32Z"/>
    <circle class="cls-4" cx="373.21" cy="353.82" r="21.71"/>
    <path d="M145.67,353.82c0-22.94-18.59-41.53-41.53-41.53s-41.53,18.59-41.53,41.53c0,21.5,16.34,39.19,37.29,41.32,1.4.12,2.81.21,4.25.21s2.84-.1,4.25-.21c20.94-2.13,37.28-19.81,37.28-41.32Z"/>
    <circle class="cls-4" cx="104.14" cy="353.82" r="21.71"/>
  </g>
</svg>