<?xml version="1.0" encoding="UTF-8"?>
<svg id="Layer_2" data-name="Layer 2" xmlns="http://www.w3.org/2000/svg" viewBox="0 0 500 500">
  <defs>
    <style>
      .cls-1 {
        fill: #a67c52;
      }

      .cls-2 {
        fill: #009245;
      }

      .cls-3 {
        fill: #39b54a;
      }

      .cls-4 {
        fill: #754c24;
      }

      .cls-5 {
        fill: #006837;
      }
    </style>
  </defs>
  <rect class="cls-4" x="215.35" y="367.87" width="69.31" height="114.09"/>
  <polygon class="cls-1" points="273.8 463.25 263.07 463.25 273.8 420.18 273.8 463.25"/>
  <ellipse class="cls-1" cx="250" cy="488.74" rx="59.95" ry="11.26"/>
  <polygon class="cls-5" points="413.15 413.99 338.59 304.31 383.98 304.31 316.99 205.76 359.16 205.76 296.38 113.4 327.09 113.4 250 0 172.91 113.4 203.62 113.4 140.84 205.76 183.01 205.76 116.02 304.31 161.41 304.31 86.85 413.99 413.15 413.99"/>
  <polygon class="cls-2" points="172.91 113.4 203.62 113.4 140.84 205.76 183.01 205.76 116.02 304.31 161.41 304.31 86.85 413.99 250 413.99 250 0 172.91 113.4"/>
  <polygon class="cls-3" points="162.13 379.71 133.67 379.71 162.13 336.64 162.13 379.71"/>
  <polygon class="cls-3" points="176.36 358.18 147.9 358.18 176.36 315.1 176.36 358.18"/>
  <polygon class="cls-3" points="192.04 185.41 172.65 185.41 192.04 156.07 192.04 185.41"/>
  <polygon class="cls-3" points="201.73 170.74 182.34 170.74 201.73 141.4 201.73 170.74"/>
  <polygon class="cls-3" points="240.31 65.37 220.92 65.37 240.31 36.02 240.31 65.37"/>
  <polygon class="cls-3" points="250 50.69 230.61 50.69 250 21.35 250 50.69"/>
</svg>