<?xml version="1.0" encoding="UTF-8"?>
<svg id="Layer_2" data-name="Layer 2" xmlns="http://www.w3.org/2000/svg" viewBox="0 0 500 500">
  <defs>
    <style>
      .cls-1 {
        fill: #a67c52;
      }

      .cls-2 {
        fill: #8cc63f;
      }

      .cls-3 {
        fill: #39b54a;
      }

      .cls-4 {
        fill: #754c24;
      }

      .cls-5 {
        fill: #006837;
      }
    </style>
  </defs>
  <circle class="cls-5" cx="349.97" cy="134.87" r="35.04"/>
  <circle class="cls-5" cx="282.32" cy="225.59" r="35.04"/>
  <circle class="cls-5" cx="153.25" cy="131.83" r="35.04"/>
  <circle class="cls-5" cx="238.72" cy="252.6" r="35.04"/>
  <circle class="cls-3" cx="247.28" cy="134.87" r="98.49"/>
  <circle class="cls-3" cx="323.4" cy="233.36" r="44.62"/>
  <circle class="cls-3" cx="369.41" cy="181.89" r="44.62"/>
  <circle class="cls-3" cx="130.59" cy="170.23" r="44.62"/>
  <circle class="cls-3" cx="159.79" cy="244.68" r="62.79"/>
  <polygon class="cls-4" points="278.78 456.01 213.95 456.01 232.37 181.89 258.59 181.89 278.78 456.01"/>
  <polygon class="cls-4" points="238.72 329.45 227.43 338.33 168.03 256.19 172.6 252.6 238.72 329.45"/>
  <polygon class="cls-4" points="261.81 323.09 247.28 311.38 322.12 226.97 328 231.71 261.81 323.09"/>
  <polygon class="cls-4" points="240.12 238.39 231.34 242.76 205.04 183.66 208.59 181.89 240.12 238.39"/>
  <polygon class="cls-1" points="266.79 429.14 253.87 430.16 257.62 313.59 266.79 429.14"/>
  <path class="cls-5" d="M347.89,208.87c-2.98-1.3-5.84-1.45-8.46-.92-2.11-4.21-6.41-7.12-11.43-7.12s-9.33,2.92-11.43,7.12c-2.62-.52-5.48-.38-8.46.92-4.4,1.92-7.69,6.03-8.43,10.77-1.37,8.87,5.46,16.52,14.07,16.52,3.14,0,6.02-1.05,8.37-2.77,1.42,1.68,3.51,2.77,5.88,2.77s4.46-1.09,5.88-2.77c2.36,1.72,5.23,2.77,8.37,2.77,8.61,0,15.44-7.64,14.07-16.52-.73-4.75-4.03-8.85-8.43-10.77Z"/>
  <path class="cls-5" d="M208.18,164.09c-2.98-1.3-5.84-1.45-8.46-.92-2.11-4.21-6.41-7.12-11.43-7.12s-9.33,2.92-11.43,7.12c-2.62-.52-5.48-.38-8.46.92-4.4,1.92-7.69,6.03-8.43,10.77-1.37,8.87,5.46,16.52,14.07,16.52,3.14,0,6.02-1.05,8.37-2.77,1.42,1.68,3.51,2.77,5.88,2.77s4.46-1.09,5.88-2.77c2.36,1.72,5.23,2.77,8.37,2.77,8.61,0,15.44-7.64,14.07-16.52-.73-4.75-4.03-8.85-8.43-10.77Z"/>
  <path class="cls-5" d="M187.92,235.06c-2.98-1.3-5.84-1.45-8.46-.92-2.11-4.21-6.41-7.12-11.43-7.12s-9.33,2.92-11.43,7.12c-2.62-.52-5.48-.38-8.46.92-4.4,1.92-7.69,6.03-8.43,10.77-1.37,8.87,5.46,16.52,14.07,16.52,3.14,0,6.02-1.05,8.37-2.77,1.42,1.68,3.51,2.77,5.88,2.77s4.46-1.09,5.88-2.77c2.36,1.72,5.23,2.77,8.37,2.77,8.61,0,15.44-7.64,14.07-16.52-.73-4.75-4.03-8.85-8.43-10.77Z"/>
  <path class="cls-2" d="M162.58,226.69c-2.06-.9-4.05-1-5.86-.64-1.46-2.92-4.44-4.94-7.92-4.94s-6.46,2.02-7.92,4.94c-1.81-.36-3.8-.26-5.86.64-3.05,1.33-5.33,4.18-5.84,7.47-.95,6.15,3.78,11.45,9.75,11.45,2.18,0,4.17-.73,5.8-1.92.98,1.16,2.43,1.92,4.07,1.92s3.09-.76,4.07-1.92c1.63,1.19,3.63,1.92,5.8,1.92,5.97,0,10.7-5.3,9.75-11.45-.51-3.29-2.79-6.13-5.84-7.47Z"/>
  <path class="cls-2" d="M359.55,137.41c-2.06-.9-4.05-1-5.86-.64-1.46-2.92-4.44-4.94-7.92-4.94s-6.46,2.02-7.92,4.94c-1.81-.36-3.8-.26-5.86.64-3.05,1.33-5.33,4.18-5.84,7.47-.95,6.15,3.78,11.45,9.75,11.45,2.18,0,4.17-.73,5.8-1.92.98,1.16,2.43,1.92,4.07,1.92s3.09-.76,4.07-1.92c1.63,1.19,3.63,1.92,5.8,1.92,5.97,0,10.7-5.3,9.75-11.45-.51-3.29-2.79-6.13-5.84-7.47Z"/>
  <path class="cls-2" d="M230.57,167.05c-2.06-.9-4.05-1-5.86-.64-1.46-2.92-4.44-4.94-7.92-4.94s-6.46,2.02-7.92,4.94c-1.81-.36-3.8-.26-5.86.64-3.05,1.33-5.33,4.18-5.84,7.47-.95,6.15,3.78,11.45,9.75,11.45,2.18,0,4.17-.73,5.8-1.92.98,1.16,2.43,1.92,4.07,1.92s3.09-.76,4.07-1.92c1.63,1.19,3.63,1.92,5.8,1.92,5.97,0,10.7-5.3,9.75-11.45-.51-3.29-2.79-6.13-5.84-7.47Z"/>
  <ellipse class="cls-1" cx="246.36" cy="456.01" rx="78.42" ry="7.6"/>
</svg>