<?xml version="1.0" encoding="UTF-8"?>
<svg id="Layer_2" data-name="Layer 2" xmlns="http://www.w3.org/2000/svg" viewBox="0 0 500 500">
  <defs>
    <style>
      .cls-1 {
        fill: #d9e021;
      }

      .cls-2 {
        fill: #a67c52;
      }

      .cls-3 {
        fill: #009245;
      }

      .cls-4 {
        fill: #8cc63f;
      }

      .cls-5 {
        fill: #39b54a;
      }

      .cls-6 {
        fill: #754c24;
      }

      .cls-7 {
        fill: #006837;
      }
    </style>
  </defs>
  <rect class="cls-6" x="227.67" y="284.98" width="50.33" height="132"/>
  <circle class="cls-4" cx="315.44" cy="152.47" r="45.71"/>
  <circle class="cls-3" cx="275.68" cy="243.72" r="85.47"/>
  <circle class="cls-7" cx="261.65" cy="137.63" r="60.51"/>
  <circle class="cls-7" cx="184.59" cy="174.88" r="55.96"/>
  <circle class="cls-3" cx="227.42" cy="169.46" r="53.13"/>
  <path class="cls-7" d="M320.11,153.06c-.6,0-1.19.06-1.76.18-1.31-2.63-4-4.45-7.14-4.45s-5.82,1.82-7.14,4.45c-.57-.11-1.15-.18-1.76-.18-4.91,0-8.9,3.98-8.9,8.9s3.98,8.9,8.9,8.9c1.96,0,3.76-.65,5.23-1.73.88,1.05,2.19,1.73,3.67,1.73s2.78-.68,3.67-1.73c1.47,1.07,3.27,1.73,5.23,1.73,4.91,0,8.9-3.98,8.9-8.9s-3.98-8.9-8.9-8.9Z"/>
  <circle class="cls-4" cx="322.16" cy="226.71" r="60.55"/>
  <path class="cls-1" d="M174.42,153.26c-.44,0-.88.05-1.3.13-.97-1.94-2.95-3.28-5.27-3.28s-4.3,1.34-5.27,3.28c-.42-.08-.85-.13-1.3-.13-3.63,0-6.56,2.94-6.56,6.56s2.94,6.56,6.56,6.56c1.45,0,2.77-.48,3.86-1.28.65.77,1.62,1.28,2.71,1.28s2.05-.5,2.71-1.28c1.09.79,2.41,1.28,3.86,1.28,3.63,0,6.56-2.94,6.56-6.56s-2.94-6.56-6.56-6.56Z"/>
  <circle class="cls-5" cx="208.42" cy="234.63" r="85.47"/>
  <path class="cls-1" d="M300.07,264.99c-.75,0-1.49.08-2.2.22-1.65-3.29-5.01-5.57-8.94-5.57s-7.29,2.28-8.94,5.57c-.71-.14-1.45-.22-2.2-.22-6.15,0-11.14,4.99-11.14,11.14s4.99,11.14,11.14,11.14c2.46,0,4.7-.82,6.55-2.16,1.11,1.31,2.74,2.16,4.59,2.16s3.49-.85,4.59-2.16c1.84,1.35,4.09,2.16,6.55,2.16,6.15,0,11.14-4.99,11.14-11.14s-4.99-11.14-11.14-11.14Z"/>
  <path class="cls-1" d="M143.97,227.87c-.6,0-1.19.06-1.76.18-1.31-2.63-4-4.45-7.14-4.45s-5.82,1.82-7.14,4.45c-.57-.11-1.15-.18-1.76-.18-4.91,0-8.9,3.98-8.9,8.9s3.98,8.9,8.9,8.9c1.96,0,3.76-.65,5.23-1.73.88,1.05,2.19,1.73,3.67,1.73s2.78-.68,3.67-1.73c1.47,1.07,3.27,1.73,5.23,1.73,4.91,0,8.9-3.98,8.9-8.9s-3.98-8.9-8.9-8.9Z"/>
  <path class="cls-1" d="M291.92,175.29c-.44,0-.88.05-1.3.13-.97-1.94-2.95-3.28-5.27-3.28s-4.3,1.34-5.27,3.28c-.42-.08-.85-.13-1.3-.13-3.63,0-6.56,2.94-6.56,6.56s2.94,6.56,6.56,6.56c1.45,0,2.77-.48,3.86-1.28.65.77,1.62,1.28,2.71,1.28s2.05-.5,2.71-1.28c1.09.79,2.41,1.28,3.86,1.28,3.63,0,6.56-2.94,6.56-6.56s-2.94-6.56-6.56-6.56Z"/>
  <polygon class="cls-2" points="270.12 395.33 262.33 395.33 270.12 345.49 270.12 395.33"/>
  <ellipse class="cls-2" cx="252.83" cy="416.98" rx="60.89" ry="5.9"/>
</svg>